<svg xmlns="http://www.w3.org/2000/svg" xmlns:xlink="http://www.w3.org/1999/xlink" version="1.1" width="1000" height="1000" viewBox="0 0 1000 1000" xml:space="preserve">
<rect x="0" y="0" width="100%" height="100%" fill="#ffffff"/>
<g transform="matrix(-0.6944 0 0 -0.6944 500.032 500.0036)" id="876564">
<path style="stroke: none; stroke-width: 1; stroke-dasharray: none; stroke-linecap: butt; stroke-dashoffset: 0; stroke-linejoin: miter; stroke-miterlimit: 4; is-custom-font: none; font-file-url: none; fill: rgb(96,165,250); fill-rule: nonzero; opacity: 1;" vector-effect="non-scaling-stroke" transform=" translate(-720, -80)" d="M 0 160 L 40 144 C 80 128 160 96 240 90.7 C 320 85 400 107 480 101.3 C 560 96 640 64 720 64 C 800 64 880 96 960 101.3 C 1040 107 1120 85 1200 85.3 C 1280 85 1360 107 1400 117.3 L 1440 128 L 1440 0 L 1400 0 C 1360 0 1280 0 1200 0 C 1120 0 1040 0 960 0 C 880 0 800 0 720 0 C 640 0 560 0 480 0 C 400 0 320 0 240 0 C 160 0 80 0 40 0 L 0 0 Z" stroke-linecap="round"/>
</g>
</svg>